<svg xmlns="http://www.w3.org/2000/svg" viewBox="0 0 512 512" width="512" height="512">
  <!-- Background Circle -->
  <circle cx="256" cy="256" r="248" fill="#FF5722" stroke="#D84315" stroke-width="10" />
  
  <!-- Tab Representation - Slightly enlarged -->
  <g transform="translate(96, 126) scale(1.05)">
    <!-- First Tab -->
    <path d="M0,0 L60,0 Q75,0 75,15 L75,240 L0,240 Z" fill="#FFFFFF" opacity="1" stroke="#333333" stroke-width="3" />
    
    <!-- Second Tab -->
    <path d="M85,30 L145,30 Q160,30 160,45 L160,240 L85,240 Z" fill="#FFFFFF" opacity="0.95" stroke="#333333" stroke-width="3" />
    
    <!-- Third Tab -->
    <path d="M170,15 L230,15 Q245,15 245,30 L245,240 L170,240 Z" fill="#FFFFFF" opacity="0.97" stroke="#333333" stroke-width="3" />
    
    <!-- Fourth Tab (Active) -->
    <path d="M255,45 L315,45 Q330,45 330,60 L330,240 L255,240 Z" fill="#FFFFFF" stroke="#333333" stroke-width="3" />
  </g>
  
  <!-- "M" Letter for Master - Enlarged and with stroke -->
  <path d="M256,175 L221,230 L186,175 L186,285 L221,285 L221,230 L256,285 L291,230 L291,285 L326,285 L326,175 L291,230 Z" fill="#FFFFFF" stroke="#333333" stroke-width="4" />
</svg>